# xmcd
#
# Track frame offsets: 
#        150
#        18999
#        39680
#        64683
#        85062
#        107044
#        128873
#        151170
#        172407
#        199337
#        219091
#        240620
#        263748
#        286233
#
# Disc length: 4086 seconds
#
# Revision: 0
# Processed by: cddbd v1.5.2PL0 Copyright (c) Steve Scherf et al.
# Submitted via: ExactAudioCopy v0.99pb4
#
DISCID=c10ff40e
DTITLE=Jeff Healey Band - Feel This
DYEAR=1992
DGENRE=
TTITLE0=Baby's Lookin' Hot
TTITLE1=Cruel Little Number
TTITLE2=Dreams Of Love
TTITLE3=Evil And Here To Stay
TTITLE4=Heart Of An Angel
TTITLE5=House That Love Built
TTITLE6=If You Can't Feel Anything Else
TTITLE7=It Could All Get Blown Away
TTITLE8=Joined At The Heart
TTITLE9=Leave The Light On
TTITLE10=Live And Love
TTITLE11=Lost In Your Eyes
TTITLE12=My Kinda Lover
TTITLE13=You're Coming Home
EXTD=
EXTT0=
EXTT1=
EXTT2=
EXTT3=
EXTT4=
EXTT5=
EXTT6=
EXTT7=
EXTT8=
EXTT9=
EXTT10=
EXTT11=
EXTT12=
EXTT13=
PLAYORDER=
